<?xml version="1.0" standalone="no"?>
<!DOCTYPE svg PUBLIC "-//W3C//DTD SVG 20010904//EN"
 "http://www.w3.org/TR/2001/REC-SVG-20010904/DTD/svg10.dtd">
<svg version="1.0" xmlns="http://www.w3.org/2000/svg"
 width="256.000000pt" height="256.000000pt" viewBox="0 0 256.000000 256.000000"
 preserveAspectRatio="xMidYMid meet">

<g transform="translate(0.000000,256.000000) scale(0.100000,-0.100000)"
fill="#000000" stroke="none">
<path d="M552 2093 c-36 -14 -42 -56 -42 -303 0 -154 4 -249 11 -262 13 -24
67 -48 108 -48 24 0 28 -3 24 -19 -3 -11 2 -34 11 -52 9 -18 16 -33 16 -34 0
-2 -23 -17 -50 -35 -116 -75 -230 -235 -260 -369 -16 -67 -8 -182 14 -215 14
-23 24 -25 92 -28 l77 -3 14 -55 c7 -30 27 -72 43 -92 17 -20 30 -39 30 -42 0
-3 -139 -6 -309 -6 -330 0 -341 -2 -326 -50 l6 -20 1269 0 1269 0 6 20 c12 37
-11 50 -91 50 -75 0 -87 7 -57 31 59 49 82 202 43 288 -18 40 -19 46 -5 61 24
27 18 54 -26 103 -57 66 -146 108 -232 110 l-67 2 -15 38 c-17 43 -135 416
-135 428 0 4 10 9 23 11 21 3 22 7 25 137 2 101 -1 136 -10 143 -7 4 -54 8
-103 8 -108 0 -169 -24 -194 -77 -16 -32 -16 -33 -93 -33 -56 0 -81 -4 -92
-16 -37 -36 -9 -54 86 -54 l78 0 20 -39 c28 -56 77 -231 91 -330 35 -247 -51
-394 -231 -395 -145 0 -254 111 -253 259 1 69 20 123 63 171 41 47 41 101 1
146 -28 32 -32 33 -120 36 l-91 4 0 244 0 245 -25 24 -24 25 -278 -1 c-153 0
-284 -3 -291 -6z m546 -301 l2 -232 -257 2 -258 3 -3 220 c-1 121 0 225 3 232
3 11 58 13 257 11 l253 -3 3 -233z m773 -255 c9 -28 45 -139 80 -246 l64 -194
-25 -16 c-83 -53 -170 -176 -170 -238 l0 -23 -284 0 -284 0 -12 38 c-39 120
-141 241 -246 289 -147 67 -332 25 -463 -105 -32 -31 -65 -68 -73 -82 -16 -24
-17 -24 -6 15 32 125 146 263 266 323 l76 37 219 3 c210 4 219 3 213 -15 -53
-131 -14 -280 92 -358 111 -81 204 -109 310 -92 143 21 237 133 257 303 8 77
-10 231 -40 335 -20 70 -21 79 -6 79 11 0 21 -17 32 -53z m377 -795 c3 -24 -2
-34 -24 -48 -23 -16 -29 -16 -52 -3 -39 22 -37 35 10 63 52 31 62 29 66 -12z
m-422 -19 c10 -51 35 -111 50 -124 11 -9 20 -9 41 0 14 6 26 10 28 9 1 -2 14
-20 29 -40 l28 -38 -493 0 -493 0 26 28 c34 36 58 84 66 135 l8 42 319 5 c176
3 335 6 352 8 28 2 33 -2 39 -25z m-938 -5 c-3 -7 -16 -19 -30 -27 -23 -13
-29 -13 -52 2 -40 27 -31 37 30 37 40 0 55 -3 52 -12z"/>
<path d="M810 1921 c-5 -11 -10 -36 -10 -55 0 -36 0 -36 -44 -36 -86 0 -89
-62 -3 -68 l46 -3 3 -46 c2 -33 9 -49 24 -60 32 -21 54 5 54 63 l0 44 49 0
c41 0 51 3 56 20 10 32 -12 50 -61 50 l-44 0 0 43 c0 24 -5 48 -12 55 -18 18
-46 14 -58 -7z"/>
<path d="M9 1964 c-9 -11 -10 -20 -2 -32 9 -15 32 -17 173 -17 141 0 164 2
173 17 8 12 7 21 -2 32 -20 24 -322 24 -342 0z"/>
<path d="M84 1816 c-3 -8 -4 -23 -2 -33 3 -17 17 -18 173 -18 l170 0 0 30 0
30 -168 3 c-140 2 -168 0 -173 -12z"/>
<path d="M9 1664 c-9 -11 -10 -20 -2 -32 9 -15 32 -17 173 -17 141 0 164 2
173 17 8 12 7 21 -2 32 -20 24 -322 24 -342 0z"/>
</g>
</svg>
