<?xml version="1.0" standalone="no"?>
<!DOCTYPE svg PUBLIC "-//W3C//DTD SVG 20010904//EN"
 "http://www.w3.org/TR/2001/REC-SVG-20010904/DTD/svg10.dtd">
<svg version="1.0" xmlns="http://www.w3.org/2000/svg"
 width="512.000000pt" height="512.000000pt" viewBox="0 0 512.000000 512.000000"
 preserveAspectRatio="xMidYMid meet">

<g transform="translate(0.000000,512.000000) scale(0.100000,-0.100000)"
fill="#000000" stroke="none">
<path d="M1633 4590 c-356 -353 -523 -525 -523 -539 0 -49 143 -142 296 -193
60 -20 89 -23 224 -23 148 0 159 1 243 31 125 45 190 87 293 189 79 78 98 103
137 185 67 140 81 201 82 355 0 108 -4 143 -24 205 -43 140 -149 311 -192 310
-8 -1 -249 -234 -536 -520z"/>
<path d="M2705 4408 c-172 -200 -238 -516 -162 -775 l23 -81 -39 -6 c-87 -14
-180 -93 -232 -197 -15 -30 -29 -56 -31 -58 -2 -2 -30 21 -62 51 -226 215
-524 257 -697 97 -46 -42 -95 -125 -109 -183 -4 -16 -7 -69 -7 -117 0 -148 56
-277 179 -410 l63 -68 -57 -28 c-121 -59 -204 -166 -204 -263 0 -100 83 -204
213 -268 37 -17 71 -32 76 -32 5 0 12 15 16 33 4 17 27 74 51 124 74 154 204
269 376 331 65 24 87 27 208 27 106 0 147 -4 190 -19 100 -34 193 -89 266
-158 l71 -68 6 72 c6 70 5 74 -39 162 -63 130 -88 235 -81 356 5 112 27 170
83 224 20 20 55 41 78 47 59 16 163 6 214 -20 24 -12 45 -21 46 -19 1 2 11 44
24 93 30 124 74 209 142 277 88 88 182 107 280 58 50 -25 125 -108 157 -174
15 -31 30 -56 34 -56 3 0 14 9 24 20 18 20 14 24 -216 257 -602 610 -809 813
-828 813 -11 0 -36 -19 -56 -42z m299 -489 c33 -26 36 -77 5 -105 -17 -15 -37
-19 -104 -19 -88 0 -109 9 -126 53 -11 28 12 78 38 85 10 3 50 5 89 6 58 1 76
-3 98 -20z m116 -289 c37 -37 27 -77 -38 -142 -48 -47 -65 -58 -92 -58 -45 0
-70 25 -70 69 0 30 9 44 60 93 66 64 103 75 140 38z"/>
<path d="M2183 2301 c-132 -49 -223 -153 -252 -289 -6 -29 -11 -60 -11 -67 0
-13 56 -15 391 -15 l392 0 -6 55 c-12 121 -98 240 -215 297 -56 28 -77 33
-156 35 -71 3 -102 -1 -143 -16z"/>
</g>
</svg>
