<?xml version="1.0" standalone="no"?>
<!DOCTYPE svg PUBLIC "-//W3C//DTD SVG 20010904//EN"
 "http://www.w3.org/TR/2001/REC-SVG-20010904/DTD/svg10.dtd">
<svg version="1.0" xmlns="http://www.w3.org/2000/svg"
 width="1920.000000pt" height="1440.000000pt" viewBox="0 0 1920.000000 1440.000000"
 preserveAspectRatio="xMidYMid meet">

<g transform="translate(0.000000,1440.000000) scale(0.100000,-0.100000)"
fill="#000000" stroke="none">
<path d="M9320 9235 c-925 -127 -1644 -861 -1760 -1795 -15 -123 -12 -371 5
-507 57 -439 254 -845 564 -1166 l75 -77 380 378 c411 407 424 418 550 441 33
6 99 11 146 11 363 0 723 321 830 738 21 85 26 142 11 142 -5 0 -128 -106
-273 -235 -286 -255 -295 -261 -343 -209 -14 15 -25 39 -25 53 0 26 15 43 429
479 75 79 139 155 143 169 14 50 -21 93 -76 93 -27 0 -34 -7 -426 -380 -102
-97 -196 -182 -208 -189 -47 -25 -123 37 -105 86 4 10 112 136 240 280 128
144 233 267 233 272 0 28 -220 -29 -339 -87 -215 -106 -374 -258 -469 -448
-57 -113 -82 -227 -82 -372 0 -95 -25 -181 -70 -246 -16 -23 -109 -122 -208
-220 l-180 -179 -55 84 c-192 295 -280 642 -249 977 36 384 180 692 451 963
231 230 472 359 803 431 149 31 427 31 578 -1 324 -69 568 -199 796 -426 128
-127 207 -231 279 -367 247 -466 241 -1031 -16 -1483 -251 -442 -696 -734
-1193 -784 -69 -7 -385 -11 -845 -11 l-736 0 -250 -250 -250 -250 1040 0
c1065 0 1114 2 1308 41 203 41 470 147 652 259 607 372 975 1033 975 1750 0
1033 -758 1900 -1778 2035 -137 18 -419 18 -552 0z"/>
</g>
</svg>
