<?xml version="1.0" standalone="no"?>
<!DOCTYPE svg PUBLIC "-//W3C//DTD SVG 20010904//EN"
 "http://www.w3.org/TR/2001/REC-SVG-20010904/DTD/svg10.dtd">
<svg version="1.0" xmlns="http://www.w3.org/2000/svg"
 width="300.000000pt" height="300.000000pt" viewBox="0 0 300.000000 300.000000"
 preserveAspectRatio="xMidYMid meet">
<metadata>
Created by potrace 1.10, written by Peter Selinger 2001-2011
</metadata>
<g transform="translate(0.000000,300.000000) scale(0.100000,-0.100000)"
fill="#000000" stroke="none">
<path d="M767 2383 c-4 -3 -6 -38 -5 -77 l2 -71 3 63 c2 34 8 62 13 62 11 0
24 -63 18 -93 -3 -18 0 -22 21 -23 14 -1 20 1 14 3 -7 3 -13 20 -13 39 0 38
-24 104 -38 104 -5 0 -12 -3 -15 -7z"/>
<path d="M635 2361 c-3 -5 5 -39 18 -75 15 -39 21 -70 16 -78 -13 -20 -10 -87
5 -145 8 -29 10 -55 5 -60 -5 -5 -10 -41 -11 -81 -1 -58 -5 -72 -17 -72 -9 0
-24 -7 -35 -15 -27 -21 -9 -67 31 -78 26 -8 32 -16 37 -47 3 -20 12 -42 19
-48 21 -18 42 3 39 38 -3 25 1 32 23 40 35 13 53 0 57 -43 2 -24 8 -32 23 -32
15 0 23 11 32 45 13 53 17 190 4 190 -4 0 -8 -17 -7 -37 1 -32 -2 -38 -21 -41
-13 -2 -23 -8 -23 -14 0 -5 6 -8 14 -5 8 3 16 0 19 -6 7 -18 -4 -77 -14 -77
-12 0 -29 36 -21 45 4 5 1 5 -7 0 -8 -4 -17 -2 -21 6 -7 10 -11 10 -24 0 -9
-8 -16 -10 -16 -5 0 5 -16 -9 -35 -30 l-34 -39 4 39 c2 21 1 33 -2 26 -2 -6
-9 -10 -14 -6 -13 7 -11 91 1 99 8 5 7 11 0 20 -7 8 -9 19 -5 25 4 6 18 -7 35
-33 32 -51 48 -63 62 -49 7 7 5 18 -5 33 -9 13 -17 44 -18 69 -3 52 -13 70
-40 70 -23 0 -24 7 -3 28 11 10 13 17 5 20 -6 2 -9 15 -6 30 5 23 4 24 -4 7
-7 -14 -10 -16 -11 -5 -3 25 0 83 6 114 5 21 3 27 -7 21 -9 -6 -11 -3 -6 8 3
9 -3 42 -13 73 -23 66 -23 64 -10 64 5 0 18 -21 30 -47 11 -26 26 -51 33 -55
9 -6 9 -8 0 -8 -7 0 -13 -5 -13 -10 0 -6 8 -5 20 2 15 10 17 14 6 20 -8 4 -17
20 -21 35 -14 57 -62 102 -80 74z m96 -418 c3 -52 6 -69 19 -93 12 -23 12 -24
-3 -11 -22 18 -48 69 -53 104 -3 21 0 27 16 27 15 0 20 -7 21 -27z m-101 -127
c0 -3 -4 -8 -10 -11 -5 -3 -10 -1 -10 4 0 6 5 11 10 11 6 0 10 -2 10 -4z m247
-18 c-3 -8 -6 -5 -6 6 -1 11 2 17 5 13 3 -3 4 -12 1 -19z m-229 -8 c-14 -22
-24 -19 -15 5 4 8 11 15 17 15 6 0 6 -7 -2 -20z m77 -90 c3 -5 1 -10 -4 -10
-6 0 -11 5 -11 10 0 6 2 10 4 10 3 0 8 -4 11 -10z m145 6 c0 -3 -4 -8 -10 -11
-5 -3 -10 -1 -10 4 0 6 5 11 10 11 6 0 10 -2 10 -4z"/>
<path d="M157 2255 c-36 -30 -36 -30 -32 -104 2 -49 8 -79 17 -85 8 -6 27 -21
42 -33 l28 -22 -34 -33 c-38 -39 -73 -110 -65 -132 10 -26 26 -18 41 19 20 47
27 44 20 -8 -6 -40 8 -134 27 -184 6 -16 14 -20 29 -16 18 5 21 11 16 34 -6
34 12 52 51 47 25 -3 28 -7 27 -40 -1 -27 3 -38 17 -41 22 -6 35 8 44 51 4 20
3 32 -4 32 -6 0 -11 -8 -11 -17 -1 -15 -5 -13 -24 8 -35 40 -71 45 -102 14
-14 -15 -29 -24 -32 -20 -11 11 -18 116 -8 122 5 4 12 1 14 -5 5 -16 56 -42
82 -42 11 0 32 11 46 25 32 32 35 32 33 -7 -3 -68 53 -145 114 -155 30 -5 37
-3 37 11 0 13 -5 16 -21 11 -16 -5 -30 3 -64 39 -39 43 -44 52 -47 106 -3 66
3 75 22 30 12 -30 33 -39 45 -20 9 15 -41 105 -75 134 l-32 26 31 0 c17 0 31
5 31 10 0 6 7 10 15 10 14 0 39 46 63 119 10 28 9 38 -3 51 -8 9 -15 21 -15
27 0 16 -101 64 -121 58 -10 -4 -24 -3 -31 2 -7 4 -41 8 -75 8 -54 0 -65 -3
-96 -30z m153 7 c0 -5 -7 -9 -15 -9 -8 0 -15 4 -15 9 0 4 7 8 15 8 8 0 15 -4
15 -8z m-60 -6 c0 -11 -19 -15 -25 -6 -3 5 1 10 9 10 9 0 16 -2 16 -4z m25 -6
c3 -5 1 -10 -4 -10 -6 0 -11 5 -11 10 0 6 2 10 4 10 3 0 8 -4 11 -10z m73 -11
c3 -11 1 -11 -8 1 -10 13 -11 13 -7 0 2 -8 9 -16 15 -16 7 -1 15 -2 18 -3 4 0
-5 -10 -20 -22 -16 -13 -26 -30 -26 -47 0 -26 0 -26 18 7 20 40 52 63 59 44 3
-7 18 -13 34 -13 16 0 29 -5 29 -11 0 -5 5 -7 11 -3 8 5 8 1 0 -14 -6 -12 -18
-25 -25 -29 -15 -8 -16 -10 -16 -44 0 -30 -65 -93 -88 -84 -30 12 -109 16 -92
5 8 -5 31 -10 51 -10 42 0 47 -7 55 -89 5 -49 3 -59 -15 -75 -29 -26 -81 -23
-105 6 -16 20 -18 35 -13 100 4 66 2 79 -14 94 -10 9 -21 25 -24 35 -4 11 -11
16 -17 13 -6 -4 -8 1 -5 12 6 19 10 76 8 102 -1 8 -6 10 -13 6 -7 -4 -4 2 6
14 20 23 50 29 60 13 3 -5 15 -7 25 -4 23 6 33 -9 42 -62 l6 -40 2 41 c0 22
-4 45 -10 51 -17 17 -1 37 17 22 9 -7 14 -8 13 -3 -5 28 21 32 29 3z m38 12
c-3 -5 2 -11 12 -13 10 -3 19 -12 19 -20 0 -13 -4 -13 -29 0 -23 11 -27 17
-17 28 13 15 23 19 15 5z m68 -39 c3 -5 -1 -9 -9 -9 -8 0 -12 4 -9 9 3 4 7 8
9 8 2 0 6 -4 9 -8z m-292 -47 c-6 -32 -18 -32 -18 0 0 14 5 25 12 25 7 0 9
-10 6 -25z m305 -58 c0 -8 -6 -14 -14 -14 -9 0 -10 4 -2 14 6 7 12 13 14 13 1
0 2 -6 2 -13z m-261 -192 c0 -52 -1 -54 -14 -29 -8 16 -19 23 -28 20 -12 -5
-12 -2 -3 17 7 12 19 27 28 34 9 7 16 13 16 13 0 0 1 -25 1 -55z m201 10 c6
-14 7 -25 3 -25 -5 0 -15 -2 -23 -5 -10 -4 -14 3 -15 29 -2 40 16 41 35 1z
m-267 -55 c0 -5 -5 -10 -11 -10 -5 0 -7 5 -4 10 3 6 8 10 11 10 2 0 4 -4 4
-10z m310 -10 c0 -5 -4 -10 -10 -10 -5 0 -10 5 -10 10 0 6 5 10 10 10 6 0 10
-4 10 -10z"/>
<path d="M410 2175 c0 -5 5 -17 10 -25 5 -8 10 -10 10 -5 0 6 -5 17 -10 25 -5
8 -10 11 -10 5z"/>
<path d="M380 2156 c0 -2 7 -7 16 -10 8 -3 12 -2 9 4 -6 10 -25 14 -25 6z"/>
<path d="M375 2130 c3 -5 8 -10 11 -10 2 0 4 5 4 10 0 6 -5 10 -11 10 -5 0 -7
-4 -4 -10z"/>
<path d="M230 2119 c0 -5 5 -7 10 -4 6 3 10 8 10 11 0 2 -4 4 -10 4 -5 0 -10
-5 -10 -11z"/>
<path d="M265 2110 c-3 -6 1 -13 9 -16 21 -8 20 -31 -1 -38 -14 -4 -14 -4 2
-3 11 1 27 -2 35 -7 12 -7 13 -6 3 5 -18 19 -16 26 10 33 22 6 22 7 3 21 -23
17 -52 20 -61 5z"/>
<path d="M396 2097 c3 -10 9 -15 12 -12 3 3 0 11 -7 18 -10 9 -11 8 -5 -6z"/>
<path d="M208 2093 c7 -3 16 -2 19 1 4 3 -2 6 -13 5 -11 0 -14 -3 -6 -6z"/>
<path d="M361 2083 c-1 -16 5 -23 17 -23 10 0 13 3 6 8 -6 4 -14 14 -17 22 -4
10 -6 8 -6 -7z"/>
<path d="M1688 2268 c-20 -5 -50 -22 -65 -36 -17 -16 -37 -25 -51 -23 -71 9
-99 -83 -43 -140 30 -29 74 -39 86 -18 5 7 16 2 31 -12 31 -29 30 -35 -3 -44
-66 -16 -88 -50 -60 -89 13 -18 15 -18 42 0 25 16 28 17 23 2 -24 -61 -16
-246 10 -240 7 1 12 -2 12 -8 0 -5 5 -10 11 -10 5 0 7 5 4 10 -3 6 -1 10 4 10
6 0 11 -4 11 -10 0 -5 7 -7 15 -4 8 4 15 16 15 28 0 28 18 46 46 46 28 0 47
-24 39 -50 -5 -16 -2 -20 14 -20 12 0 21 5 21 10 0 6 5 10 11 10 5 0 7 -4 4
-10 -3 -5 3 -10 13 -10 16 0 21 10 26 54 7 52 8 54 42 61 19 3 38 13 41 21 10
25 -6 28 -30 6 -33 -31 -47 -27 -47 11 0 17 -4 49 -9 69 -8 35 -7 38 30 63 44
29 47 37 19 65 -24 24 -29 24 -58 4 -13 -9 -26 -13 -30 -10 -12 12 26 61 50
64 53 6 68 14 83 42 21 41 19 86 -6 111 -18 18 -28 20 -65 14 -26 -3 -44 -2
-44 3 0 16 -77 42 -118 41 -20 -1 -54 -5 -74 -11z m124 -14 l37 -6 -20 -27
c-13 -18 -21 -48 -24 -96 l-4 -70 12 70 c15 85 27 108 51 99 36 -14 42 -96 7
-87 -10 2 -23 -2 -30 -11 -10 -12 -9 -18 7 -34 17 -17 18 -22 5 -46 -17 -33
-4 -56 33 -56 34 0 39 -18 14 -45 -21 -22 -22 -31 -17 -105 7 -105 0 -150 -24
-150 -11 0 -19 5 -19 10 0 20 -40 50 -67 50 -28 0 -63 -25 -63 -45 0 -17 -23
-25 -41 -15 -10 7 -13 34 -11 116 2 96 0 109 -18 126 -23 22 -26 38 -6 38 8 0
24 8 37 18 21 18 21 20 6 42 -12 17 -13 28 -6 42 16 29 3 51 -26 46 -27 -6
-35 7 -35 52 0 51 42 52 72 3 10 -16 18 -22 18 -15 0 8 -13 26 -28 42 l-29 28
36 15 c40 17 78 20 133 11z m156 -44 c-1 -3 2 -17 6 -32 10 -33 -6 -62 -41
-80 l-28 -14 0 66 0 65 32 0 c17 0 31 -2 31 -5z m-368 -60 c0 -16 5 -41 10
-56 12 -29 8 -39 -12 -32 -7 3 -17 6 -22 6 -4 0 -18 15 -31 34 -20 29 -21 35
-8 55 14 21 40 33 56 26 4 -2 7 -17 7 -33z m-66 15 c-4 -8 -8 -15 -10 -15 -2
0 -4 7 -4 15 0 8 4 15 10 15 5 0 7 -7 4 -15z m346 -49 c0 -21 -21 -31 -30 -15
-5 7 -6 17 -4 21 9 14 34 9 34 -6z m-210 -19 c0 -8 -3 -17 -7 -20 -9 -9 -34
13 -27 24 8 14 34 11 34 -4z m287 -123 c-10 -10 -48 27 -41 38 4 6 16 1 27
-11 12 -11 18 -24 14 -27z m-349 -42 c4 -25 -13 -30 -22 -6 -9 25 -7 36 7 32
6 -3 13 -14 15 -26z"/>
<path d="M1850 2200 c0 -6 7 -10 15 -10 8 0 15 2 15 4 0 2 -7 6 -15 10 -8 3
-15 1 -15 -4z"/>
<path d="M1630 2169 c0 -5 5 -7 10 -4 6 3 10 8 10 11 0 2 -4 4 -10 4 -5 0 -10
-5 -10 -11z"/>
<path d="M1840 2170 c0 -5 5 -10 10 -10 6 0 10 5 10 10 0 6 -4 10 -10 10 -5 0
-10 -4 -10 -10z"/>
<path d="M1650 2144 c0 -8 5 -12 10 -9 6 4 8 11 5 16 -9 14 -15 11 -15 -7z"/>
<path d="M1707 2100 c3 -25 7 -47 9 -49 8 -9 2 55 -6 74 -6 13 -7 5 -3 -25z"/>
<path d="M1810 2045 c-8 -9 -8 -15 -2 -15 12 0 26 19 19 26 -2 2 -10 -2 -17
-11z"/>
<path d="M1696 2036 c10 -8 21 -12 24 -10 5 6 -21 24 -34 24 -6 0 -1 -6 10
-14z"/>
<path d="M1750 2040 c-9 -6 -10 -10 -3 -10 6 0 15 5 18 10 8 12 4 12 -15 0z"/>
<path d="M1748 2013 c6 -2 18 -2 25 0 6 3 1 5 -13 5 -14 0 -19 -2 -12 -5z"/>
<path d="M1707 2004 c-4 -4 -7 -35 -7 -68 0 -70 19 -106 53 -105 20 1 19 2 -5
10 -26 10 -44 36 -32 48 3 3 10 -2 15 -12 12 -20 69 -23 87 -5 9 9 12 9 12 0
0 -6 -12 -18 -27 -26 -20 -11 -23 -15 -10 -16 28 0 57 37 57 73 0 49 -19 107
-35 107 -19 0 -19 -7 0 -60 16 -46 10 -64 -25 -73 -31 -8 -49 14 -63 76 -7 32
-16 55 -20 51z"/>
<path d="M1746 1991 c-4 -5 3 -7 14 -4 23 6 26 13 6 13 -8 0 -17 -4 -20 -9z"/>
<path d="M1751 1966 c-9 -11 -6 -12 14 -8 14 2 22 8 19 13 -8 13 -20 11 -33
-5z"/>
<path d="M1756 1941 c-3 -4 6 -6 19 -3 14 2 25 6 25 8 0 8 -39 4 -44 -5z"/>
<path d="M1795 1910 c3 -5 8 -10 11 -10 2 0 4 5 4 10 0 6 -5 10 -11 10 -5 0
-7 -4 -4 -10z"/>
<path d="M1197 2264 c-4 -4 -7 -17 -7 -29 0 -18 -12 -25 -67 -43 -38 -12 -79
-23 -92 -24 -14 -2 -26 -8 -28 -15 -7 -19 61 -87 112 -112 30 -15 45 -28 43
-39 -5 -25 -22 -24 -60 2 -37 25 -66 21 -55 -8 4 -9 26 -29 50 -43 l43 -27 -4
-64 c-4 -65 12 -178 29 -198 5 -7 18 -10 29 -7 15 4 19 13 17 42 -2 34 0 36
32 39 39 4 52 -10 44 -49 -4 -21 -1 -27 16 -32 27 -7 41 18 48 88 l6 54 40
-27 c34 -23 51 -27 105 -26 83 2 92 13 45 51 -58 46 -82 56 -139 55 l-52 0 -6
126 c-13 253 -22 297 -50 256 -20 -27 -57 -21 -77 12 -8 14 -18 21 -22 18z
m16 -49 c-3 -9 1 -15 10 -15 9 0 28 -5 44 -11 21 -8 24 -12 13 -19 -8 -5 -11
-12 -7 -17 9 -9 28 17 21 29 -3 4 0 8 5 8 9 0 17 -80 12 -113 -1 -4 3 -25 8
-48 5 -22 7 -38 4 -35 -3 2 -15 1 -28 -4 -20 -8 -23 -6 -20 15 1 14 -2 22 -6
19 -5 -3 -9 -2 -9 3 0 4 -25 9 -56 9 -30 1 -58 4 -61 8 -3 3 2 16 13 28 19 23
19 23 -2 6 -26 -23 -39 -23 -62 0 -10 10 -29 26 -42 35 -29 20 -15 43 27 41
15 0 41 7 57 17 16 9 35 15 42 12 10 -3 16 5 20 26 4 17 10 28 15 26 4 -3 6
-12 2 -20z m100 1 c3 -8 -2 -16 -14 -19 -16 -4 -17 -2 -8 14 12 23 15 23 22 5z
m-50 -226 c3 -14 1 -26 -4 -28 -5 -2 -9 -10 -9 -18 0 -8 -4 -14 -10 -14 -5 0
-10 -7 -10 -17 0 -9 -3 -13 -7 -10 -3 4 -12 2 -20 -4 -10 -9 -13 -8 -13 0 0 7
-4 10 -9 7 -12 -8 -22 47 -15 82 5 24 10 27 49 27 39 0 44 -2 48 -25z m-183
-1 c0 -6 -4 -7 -10 -4 -5 3 -10 11 -10 16 0 6 5 7 10 4 6 -3 10 -11 10 -16z
m240 -44 c0 -38 -34 -115 -51 -115 -6 0 -5 9 3 23 7 12 13 40 15 62 4 49 9 65
23 65 5 0 10 -16 10 -35z m-65 -95 c-14 -28 -14 -31 0 -36 17 -7 36 13 66 69
l16 29 2 -33 c5 -76 4 -101 -6 -107 -6 -4 -12 -16 -14 -26 -4 -19 -5 -19 -21
-2 -10 9 -33 19 -52 21 -29 4 -38 0 -55 -21 -12 -15 -21 -25 -21 -23 0 2 -4
30 -9 61 -6 32 -6 69 -1 85 4 15 9 23 9 18 1 -12 41 -15 41 -4 0 4 9 11 20 14
11 3 23 18 27 33 8 26 8 25 11 -10 2 -20 -4 -51 -13 -68z m192 -37 c11 -4 14
-2 9 5 -4 7 -3 12 3 12 9 0 36 -39 34 -49 -2 -7 -27 -21 -38 -21 -5 0 -3 5 5
10 11 7 7 10 -17 10 -18 0 -33 3 -33 8 0 4 -12 15 -27 25 l-28 18 38 -6 c21
-3 46 -9 54 -12z m87 -44 c-9 -15 -31 -10 -31 6 0 8 4 15 9 15 5 0 6 6 3 13
-4 6 0 3 9 -7 8 -10 13 -23 10 -27z"/>
<path d="M2075 2229 c4 -19 16 -50 26 -69 10 -19 21 -47 24 -62 3 -14 16 -40
30 -56 43 -51 25 -59 -28 -12 -58 51 -68 2 -11 -55 l36 -36 2 -102 c1 -56 7
-111 13 -122 9 -15 10 9 6 105 -5 103 -9 129 -24 146 -20 22 -27 46 -7 26 15
-15 48 3 48 27 0 10 -8 25 -18 35 -11 9 -25 35 -31 59 -7 23 -20 51 -29 61
-10 11 -11 16 -4 12 19 -11 44 25 30 41 -7 9 -7 13 0 13 6 0 13 -4 16 -9 7
-10 196 -8 236 3 24 6 24 6 3 -3 -13 -6 -23 -14 -23 -19 0 -16 29 -34 42 -27
7 4 -2 -6 -21 -22 -23 -19 -31 -32 -23 -37 14 -8 -2 -49 -31 -83 -20 -23 -14
-46 17 -72 9 -7 22 -26 29 -41 13 -26 13 -27 -7 -22 -19 5 -20 4 -6 -11 31
-34 36 -43 32 -55 -2 -6 4 -12 12 -12 17 0 17 1 1 73 -3 16 -24 48 -46 72 -34
37 -38 46 -25 51 23 9 46 56 46 93 0 19 7 34 19 40 10 6 21 21 25 35 3 13 9
31 12 40 5 13 -1 16 -33 16 -22 0 -43 -3 -46 -7 -9 -8 -191 -8 -205 1 -5 3
-28 8 -52 12 l-42 7 7 -34z"/>
<path d="M2579 2244 c-10 -12 -10 -20 -2 -34 7 -10 9 -27 7 -37 -8 -31 14 -99
42 -133 l26 -30 -39 -44 c-46 -53 -71 -112 -53 -129 9 -9 15 -8 24 6 34 55 35
55 36 -19 0 -68 23 -174 38 -174 21 1 36 22 36 52 1 31 3 33 36 33 33 0 35 -2
38 -36 4 -48 38 -61 53 -21 16 43 25 142 18 201 -7 51 -6 55 21 78 16 13 39
40 51 59 18 29 19 38 8 44 -9 6 -26 -3 -51 -26 -21 -19 -45 -34 -53 -34 -22 0
-19 9 10 32 38 30 47 55 51 139 3 70 2 78 -16 84 -11 3 -25 3 -31 -1 -14 -8
-187 -9 -196 0 -12 11 -40 6 -54 -10z m51 -13 c0 -10 -30 -24 -37 -17 -3 3 -2
9 2 15 8 13 35 15 35 2z m163 -8 c49 -7 61 -24 53 -77 -7 -45 -18 -57 -32 -34
-4 6 1 17 11 25 16 11 17 13 3 13 -9 0 -19 -4 -23 -10 -3 -5 -13 -6 -23 -3
-14 5 -15 3 -4 -8 19 -20 14 -48 -13 -75 -20 -20 -28 -23 -45 -14 -34 18 -55
59 -42 80 9 15 8 19 -6 19 -58 3 -62 5 -62 32 0 31 23 54 45 45 8 -3 15 -1 15
4 0 5 16 6 35 3 24 -4 35 -2 35 6 0 7 5 9 11 6 5 -4 25 -9 42 -12z m67 2 c0
-9 -6 -12 -15 -9 -8 4 -15 10 -15 15 0 5 7 9 15 9 8 0 15 -7 15 -15z m-210
-110 c0 -8 -7 -15 -15 -15 -8 0 -15 7 -15 15 0 8 7 15 15 15 8 0 15 -7 15 -15z
m20 -46 c0 -13 20 -34 40 -42 9 -3 5 -6 -11 -6 -33 -1 -81 46 -59 59 16 10 30
4 30 -11z m160 8 c0 -16 -37 -51 -62 -60 -22 -8 -24 8 -3 17 8 3 20 17 27 31
12 26 38 34 38 12z m72 -49 c-7 -7 -12 -8 -12 -2 0 14 12 26 19 19 2 -3 -1
-11 -7 -17z m-111 -55 c4 -15 7 -49 8 -75 1 -56 -17 -78 -64 -78 -59 0 -82 42
-71 133 l7 52 57 -2 c54 -1 57 -3 63 -30z m55 2 c-9 -9 -16 -13 -16 -8 0 4 -5
1 -11 -7 -8 -12 -10 -11 -7 5 2 11 8 20 15 20 6 0 15 3 19 8 4 4 9 5 12 2 2
-2 -3 -11 -12 -20z m-199 -80 c-4 -19 -5 -19 -12 3 -7 22 -8 22 -28 5 -21 -18
-19 -13 13 34 l15 23 8 -22 c4 -12 6 -31 4 -43z m-57 -24 c0 -6 -4 -13 -10
-16 -5 -3 -10 1 -10 9 0 9 5 16 10 16 6 0 10 -4 10 -9z m228 -43 c1 -24 -3
-45 -10 -50 -10 -6 -10 -8 0 -8 6 0 12 -5 12 -11 0 -5 -5 -7 -11 -3 -8 4 -9
-1 -5 -17 7 -24 7 -24 -17 3 -14 15 -28 24 -31 21 -3 -4 -6 -1 -6 6 0 8 -5 9
-19 1 -14 -7 -20 -7 -23 2 -2 6 -12 12 -21 14 -9 1 -15 -2 -11 -7 3 -5 10 -6
16 -3 6 4 8 1 6 -7 -3 -8 -10 -13 -16 -12 -6 2 -9 -3 -6 -11 8 -21 -13 -29
-22 -8 -4 9 -9 38 -11 65 -2 37 0 47 12 47 8 0 15 -7 15 -15 0 -9 12 -18 30
-21 18 -4 27 -11 23 -18 -4 -7 -2 -7 7 1 7 6 19 9 26 6 8 -3 14 1 14 8 0 11 3
11 10 -1 7 -11 10 -11 10 -2 0 7 5 10 11 6 6 -3 10 1 9 12 -3 24 -1 44 3 44 2
0 4 -19 5 -42z"/>
<path d="M2625 2190 c-3 -5 -2 -10 4 -10 5 0 13 5 16 10 3 6 2 10 -4 10 -5 0
-13 -4 -16 -10z"/>
<path d="M2810 2196 c0 -2 7 -7 16 -10 8 -3 12 -2 9 4 -6 10 -25 14 -25 6z"/>
<path d="M2810 2170 c0 -5 5 -10 11 -10 5 0 7 5 4 10 -3 6 -8 10 -11 10 -2 0
-4 -4 -4 -10z"/>
<path d="M2696 2123 c-4 -4 3 -15 16 -25 18 -14 20 -20 9 -27 -9 -6 -5 -8 14
-8 19 0 23 2 14 8 -11 8 -10 12 5 24 10 7 15 18 11 24 -7 12 -58 15 -69 4z"/>
<path d="M880 2229 c0 -5 5 -7 10 -4 6 3 10 8 10 11 0 2 -4 4 -10 4 -5 0 -10
-5 -10 -11z"/>
<path d="M775 2220 c3 -5 8 -10 11 -10 2 0 4 5 4 10 0 6 -5 10 -11 10 -5 0 -7
-4 -4 -10z"/>
<path d="M825 2220 c3 -5 8 -10 11 -10 2 0 4 5 4 10 0 6 -5 10 -11 10 -5 0 -7
-4 -4 -10z"/>
<path d="M903 2214 c-4 -10 0 -20 10 -26 21 -11 22 -37 2 -45 -9 -3 -15 -15
-13 -27 2 -16 -3 -22 -21 -24 -13 -2 -28 1 -34 7 -17 17 -31 13 -17 -4 7 -8
24 -15 38 -15 25 0 25 -1 7 -14 -11 -8 -25 -12 -31 -9 -17 6 -29 -18 -14 -27
7 -4 10 -12 6 -18 -3 -5 2 -16 11 -23 9 -8 22 -29 30 -46 7 -18 18 -33 23 -33
6 0 10 -16 10 -36 0 -21 4 -33 10 -29 15 10 60 102 60 124 0 10 7 21 15 25 19
7 19 33 -1 53 -13 13 -19 14 -40 2 -15 -8 -23 -18 -19 -27 5 -15 -15 -72 -26
-72 -8 0 -45 42 -58 67 -9 18 -8 23 9 28 11 3 31 21 43 38 29 39 61 123 52
137 -10 16 -45 12 -52 -6z m69 -201 c-3 -16 -7 -22 -10 -15 -4 13 4 42 11 42
2 0 2 -12 -1 -27z m-16 -45 c-3 -7 -9 -21 -12 -30 -7 -20 -29 -24 -40 -6 -4 7
-3 8 4 4 7 -4 17 3 24 18 6 14 15 26 20 26 6 0 7 -6 4 -12z"/>
<path d="M2165 2200 c-3 -5 -1 -10 4 -10 6 0 11 5 11 10 0 6 -2 10 -4 10 -3 0
-8 -4 -11 -10z"/>
<path d="M2345 2190 c3 -5 8 -10 11 -10 2 0 4 5 4 10 0 6 -5 10 -11 10 -5 0
-7 -4 -4 -10z"/>
<path d="M2170 2170 c0 -5 5 -10 10 -10 6 0 10 5 10 10 0 6 -4 10 -10 10 -5 0
-10 -4 -10 -10z"/>
<path d="M2325 2170 c-3 -5 1 -10 10 -10 9 0 13 5 10 10 -3 6 -8 10 -10 10 -2
0 -7 -4 -10 -10z"/>
<path d="M830 2166 c0 -2 7 -7 16 -10 8 -3 12 -2 9 4 -6 10 -25 14 -25 6z"/>
<path d="M2220 2130 c-20 -16 -23 -22 -14 -37 18 -30 59 -39 88 -19 14 9 26
22 26 28 0 6 -8 4 -18 -5 -20 -18 -59 -22 -81 -8 -12 8 -12 12 2 25 17 18 67
22 67 5 0 -5 5 -7 11 -3 8 4 3 12 -12 20 -32 18 -40 17 -69 -6z"/>
<path d="M2065 2071 c-6 -11 9 -23 19 -14 9 9 7 23 -3 23 -6 0 -12 -4 -16 -9z"/>
<path d="M2224 2035 c11 -8 27 -15 36 -15 9 0 25 7 36 15 23 18 11 20 -16 3
-16 -10 -24 -10 -40 0 -27 17 -39 15 -16 -3z"/>
<path d="M752 2015 c0 -11 4 -33 8 -50 7 -27 8 -27 8 -5 0 14 -4 36 -8 50 -6
20 -8 21 -8 5z"/>
<path d="M2196 1976 c-13 -63 -7 -106 19 -131 26 -27 41 -30 79 -15 40 15 48
41 36 112 l-11 63 -59 0 c-56 0 -59 -1 -64 -29z m119 -18 c17 -76 5 -111 -42
-123 -19 -4 -32 0 -49 16 -25 23 -29 51 -18 108 6 30 8 31 55 29 44 -2 49 -5
54 -30z"/>
<path d="M2361 1885 c-2 -5 -4 -23 -6 -40 -1 -16 -6 -57 -9 -90 -5 -43 -4 -56
3 -45 6 8 11 30 11 48 0 17 5 32 10 32 6 0 10 -7 10 -15 0 -8 5 -15 10 -15 6
0 10 5 10 11 0 5 5 7 10 4 6 -3 10 -2 10 3 0 6 -11 13 -24 16 -21 5 -25 13
-29 54 -2 26 -5 43 -6 37z"/>
<path d="M807 1823 c-10 -9 -9 -23 1 -23 5 0 9 7 9 15 0 17 -1 18 -10 8z"/>
<path d="M841 1754 c0 -11 3 -14 6 -6 3 7 2 16 -1 19 -3 4 -6 -2 -5 -13z"/>
<path d="M2228 1759 c-11 -6 -18 -21 -17 -37 l1 -27 11 28 c8 20 18 27 39 27
22 0 31 -7 40 -27 9 -23 12 -25 15 -10 10 41 -48 70 -89 46z"/>
<path d="M2174 1674 c3 -9 6 -17 6 -19 0 -2 9 -1 20 2 30 8 25 33 -6 33 -20 0
-25 -4 -20 -16z"/>
<path d="M2300 1671 c0 -12 7 -17 23 -16 31 2 34 30 2 31 -18 1 -25 -3 -25
-15z"/>
<path d="M432 1475 c-12 -27 -28 -32 -35 -12 -2 6 -8 9 -12 5 -4 -4 -2 -15 5
-23 21 -26 -1 -40 -41 -26 -61 21 -88 9 -55 -25 18 -18 27 -18 20 -1 -3 8 2
14 11 14 13 0 15 -9 11 -46 -6 -45 -6 -45 5 -11 10 32 24 49 40 50 9 0 17 -60
11 -82 -3 -14 -10 -17 -26 -12 -18 6 -17 3 7 -19 29 -28 36 -53 13 -44 -10 4
-13 1 -9 -9 3 -8 0 -21 -7 -29 -17 -21 -3 -33 16 -13 8 8 20 43 27 76 9 46 16
62 28 62 24 0 72 41 61 52 -13 13 -71 13 -84 0 -7 -7 2 -9 33 -5 40 6 43 5 30
-10 -17 -22 -67 -22 -75 -1 -8 20 23 61 52 69 12 3 22 13 22 21 0 14 -2 15
-17 3 -15 -13 -15 -12 -5 8 15 28 15 33 -1 33 -8 0 -19 -11 -25 -25z"/>
<path d="M140 1478 c0 -8 6 -20 13 -28 10 -12 9 -12 -5 -2 -9 7 -19 9 -22 4
-3 -5 11 -20 31 -33 55 -36 54 -49 -5 -42 -35 4 -52 2 -57 -7 -11 -18 30 -50
65 -50 25 0 28 -3 33 -51 4 -29 13 -59 22 -69 8 -9 15 -22 15 -28 0 -22 -22
-12 -56 24 -19 19 -38 33 -43 30 -13 -8 24 -80 51 -103 21 -16 23 -26 20 -88
-3 -91 17 -170 44 -170 12 0 19 7 20 22 2 36 12 53 32 53 26 0 44 -24 40 -52
-2 -17 2 -24 18 -26 20 -3 23 4 33 79 7 44 10 98 6 118 -5 32 -3 39 24 58 35
27 64 80 49 89 -6 4 -15 -1 -20 -10 -14 -25 -68 -50 -81 -37 -19 19 -27 12
-17 -15 6 -14 7 -44 3 -66 -4 -30 -3 -39 5 -34 9 5 12 -10 12 -53 0 -62 -7
-73 -30 -46 -17 21 -56 19 -80 -5 -11 -11 -22 -20 -24 -20 -11 0 -17 120 -7
137 6 10 11 13 11 6 0 -6 12 -25 26 -42 25 -31 26 -31 54 -14 16 9 26 21 23
26 -3 5 -10 2 -15 -7 -5 -9 -13 -14 -19 -11 -5 4 -9 1 -9 -6 0 -7 -9 -3 -20 9
-23 24 -43 109 -31 130 5 8 -3 34 -18 64 l-26 49 30 26 30 25 -26 -6 c-32 -7
-41 9 -32 54 4 23 11 30 29 30 13 0 25 -6 25 -12 1 -7 3 -24 6 -38 2 -14 4
-33 4 -43 0 -10 7 -21 15 -24 20 -7 18 -31 -3 -36 -10 -2 -1 -4 20 -3 26 0 33
3 22 8 -21 13 -19 25 7 34 21 6 21 7 3 20 -10 8 -27 14 -37 14 -12 0 -18 8
-18 24 0 13 -3 38 -6 55 -5 24 -11 31 -23 26 -31 -12 -36 -10 -33 19 3 26 1
28 -13 16 -8 -7 -16 -11 -18 -9 -1 2 -7 13 -13 23 -13 24 -34 33 -34 14z m36
-123 c18 -13 17 -14 -18 -15 -36 0 -54 10 -41 24 11 11 38 7 59 -9z m54 -225
c0 -5 -2 -10 -4 -10 -3 0 -8 5 -11 10 -3 6 -1 10 4 10 6 0 11 -4 11 -10z"/>
<path d="M647 1466 c-6 -16 17 -41 31 -32 10 6 13 -19 6 -53 -4 -18 -8 -21
-17 -12 -13 13 -66 15 -85 3 -21 -14 32 -56 61 -48 23 5 25 3 30 -45 4 -29 13
-62 22 -75 17 -27 11 -51 -17 -60 -12 -3 -17 -11 -14 -21 4 -9 1 -13 -6 -10
-13 4 -48 -39 -48 -58 0 -5 5 -3 10 5 6 9 10 10 10 3 0 -7 -8 -16 -17 -22 -13
-7 -15 -13 -7 -21 7 -7 18 1 36 30 15 22 29 49 33 60 3 11 13 20 22 20 8 0 17
9 20 20 3 11 10 17 15 14 6 -4 2 5 -7 20 -10 14 -15 35 -12 45 3 13 -1 21 -10
23 -12 2 -11 8 6 30 20 25 20 26 2 21 -13 -3 -21 2 -26 17 -9 28 25 76 51 73
15 -1 13 3 -8 19 -17 12 -28 29 -28 44 0 19 -5 24 -24 24 -13 0 -26 -6 -29
-14z m1 -102 c12 -4 22 -11 22 -16 0 -14 -63 -5 -68 10 -4 13 10 15 46 6z m2
-279 c0 -8 -4 -15 -10 -15 -5 0 -7 7 -4 15 4 8 8 15 10 15 2 0 4 -7 4 -15z"/>
<path d="M884 1465 c-4 -9 -2 -21 4 -27 15 -15 44 -1 40 19 -4 23 -36 29 -44
8z"/>
<path d="M2120 1461 c0 -20 44 -45 75 -43 18 2 18 1 -2 -10 -13 -6 -23 -15
-23 -19 0 -9 28 -1 48 14 8 6 12 5 12 -4 0 -8 6 -6 16 7 13 16 15 17 10 1 -3
-9 0 -29 7 -44 9 -19 9 -27 0 -30 -6 -2 -9 -13 -6 -23 4 -14 0 -20 -11 -20 -9
0 -16 5 -16 12 0 6 -3 9 -6 5 -3 -3 -1 -14 4 -23 21 -38 -62 -107 -99 -83 -23
14 -27 11 -34 -33 -13 -73 -8 -101 20 -125 32 -28 55 -29 87 -3 30 23 42 57
21 57 -8 0 -11 -7 -7 -19 5 -17 -5 -23 -29 -19 -5 1 -6 -3 -2 -9 10 -16 -39
-12 -61 5 -10 8 -15 15 -10 15 5 0 1 9 -9 20 -10 11 -13 20 -7 20 6 0 9 6 7
13 -3 6 -1 26 4 42 5 17 10 24 10 18 1 -10 7 -10 27 -1 24 11 29 9 50 -15 13
-15 21 -34 18 -42 -4 -8 -1 -15 6 -15 12 0 11 17 -6 85 -7 28 -7 28 12 9 11
-11 20 -33 20 -49 1 -98 5 -145 14 -145 12 0 13 61 1 112 -7 32 -5 40 15 59
13 12 26 30 29 40 3 9 15 19 26 22 18 5 19 9 9 27 -8 16 -15 19 -24 11 -7 -6
-16 -8 -20 -4 -4 4 -4 0 -1 -9 4 -10 -5 -24 -27 -42 -34 -26 -52 -18 -25 12
21 25 47 78 47 99 0 10 14 26 30 35 34 19 40 56 14 82 -20 21 -36 20 -66 -3
-16 -13 -29 -17 -39 -10 -8 5 -29 9 -46 9 -18 0 -33 4 -33 9 0 5 -7 11 -15 15
-10 3 -15 -1 -15 -13z m208 -43 c2 -9 -6 -22 -17 -27 -17 -9 -22 -8 -31 9 -6
11 -8 25 -5 31 10 16 49 6 53 -13z m6 -154 c3 -8 2 -12 -4 -9 -6 3 -10 10 -10
16 0 14 7 11 14 -7z"/>
<path d="M2807 1445 c-12 -8 -39 -11 -86 -7 -38 2 -83 0 -99 -6 -23 -8 -35 -7
-50 4 -29 20 -35 5 -27 -64 9 -76 22 -116 45 -137 11 -10 20 -24 20 -31 0 -19
-45 -46 -88 -53 -56 -9 -49 -35 11 -39 41 -3 47 -1 47 16 0 11 7 25 15 32 13
11 15 8 15 -18 0 -18 -6 -32 -16 -36 -14 -6 -16 -18 -11 -89 8 -115 22 -159
50 -155 18 2 21 9 19 31 -4 35 13 57 43 57 30 0 47 -22 43 -56 -2 -21 2 -29
15 -32 20 -4 47 50 47 93 0 16 6 25 15 25 8 0 23 9 33 21 9 11 32 27 50 34 17
8 32 21 32 29 0 19 -4 19 -28 7 -9 -6 -29 -12 -43 -15 -17 -4 -31 -16 -39 -35
-6 -16 -18 -32 -26 -35 -8 -3 -14 -17 -14 -31 0 -30 -14 -32 -37 -5 -24 28
-76 27 -95 -2 -8 -12 -19 -18 -26 -14 -13 8 -25 80 -20 122 l3 29 18 -32 c29
-53 96 -64 132 -22 29 36 35 36 35 3 0 -16 4 -23 11 -18 15 9 4 91 -16 110
-19 19 -19 34 -1 34 8 0 16 -10 18 -22 3 -20 9 -23 48 -23 60 0 62 25 3 40
-64 15 -103 55 -69 68 27 11 46 65 51 146 3 44 2 82 -2 84 -5 3 -16 -1 -26 -8z
m-117 -62 c0 -46 10 -38 12 10 1 44 18 39 18 -5 0 -17 3 -28 7 -24 4 4 8 17 8
29 0 17 5 21 24 19 14 -1 30 -7 38 -13 17 -15 17 -59 -1 -59 -35 0 -43 -55 -9
-62 13 -2 11 -9 -11 -35 -26 -31 -30 -32 -86 -29 -48 2 -63 7 -79 27 -21 25
-28 44 -12 34 16 -9 35 35 21 49 -8 8 -10 7 -5 -5 8 -21 -13 -35 -27 -21 -8 8
-7 16 3 28 12 16 12 17 -3 11 -14 -5 -18 -1 -18 17 0 12 8 30 18 39 21 19 78
35 68 19 -4 -7 -2 -20 4 -29 8 -14 10 -14 9 -3 -3 32 1 51 11 45 6 -3 10 -22
10 -42z m140 31 c0 -9 -5 -14 -12 -12 -18 6 -21 28 -4 28 9 0 16 -7 16 -16z
m-252 -6 c-6 -18 -28 -21 -28 -4 0 9 7 16 16 16 9 0 14 -5 12 -12z m222 -92
c0 -8 -4 -17 -9 -21 -12 -7 -24 12 -16 25 9 15 25 12 25 -4z m-46 -145 c18
-93 18 -97 -7 -127 -23 -26 -27 -27 -63 -19 -32 8 -41 16 -51 45 -6 20 -9 57
-6 82 l5 47 59 -1 c54 -1 58 -2 63 -27z m-224 -41 c0 -5 -4 -10 -10 -10 -5 0
-10 5 -10 10 0 6 5 10 10 10 6 0 10 -4 10 -10z m350 6 c0 -11 -19 -15 -25 -6
-3 5 1 10 9 10 9 0 16 -2 16 -4z m-243 -222 c-3 -3 -12 -4 -19 -1 -8 3 -5 6 6
6 11 1 17 -2 13 -5z m143 2 c0 -11 -19 -15 -25 -6 -3 5 1 10 9 10 9 0 16 -2
16 -4z m-143 -22 c-3 -3 -12 -4 -19 -1 -8 3 -5 6 6 6 11 1 17 -2 13 -5z"/>
<path d="M2778 1383 c7 -3 16 -2 19 1 4 3 -2 6 -13 5 -11 0 -14 -3 -6 -6z"/>
<path d="M2605 1360 c-3 -5 -1 -10 4 -10 6 0 11 5 11 10 0 6 -2 10 -4 10 -3 0
-8 -4 -11 -10z"/>
<path d="M2770 1360 c0 -5 5 -10 11 -10 5 0 7 5 4 10 -3 6 -8 10 -11 10 -2 0
-4 -4 -4 -10z"/>
<path d="M2671 1331 c-11 -7 -10 -11 5 -20 15 -8 16 -12 5 -20 -9 -6 -5 -8 14
-8 19 0 23 2 14 8 -11 8 -11 11 4 20 9 6 15 14 12 20 -8 11 -36 12 -54 0z"/>
<path d="M1100 1425 c-16 -20 -2 -38 24 -31 22 5 23 4 18 -72 -3 -59 0 -86 12
-110 21 -40 13 -56 -35 -75 -39 -15 -49 -36 -30 -66 6 -10 13 -11 29 -2 21 11
21 10 15 -71 -6 -104 5 -138 46 -138 25 0 30 4 33 28 2 22 8 28 35 30 28 3 32
0 35 -25 2 -23 8 -29 35 -31 31 -3 32 -2 39 44 3 25 4 77 0 115 -3 38 -3 69 1
69 5 0 19 9 32 19 20 15 22 21 12 39 -13 24 -40 29 -59 10 -21 -21 -25 0 -4
29 25 37 43 91 45 142 1 38 4 41 29 41 34 0 45 17 24 38 -15 15 -18 15 -37 -5
l-21 -21 -34 23 c-47 32 -94 38 -145 21 -38 -13 -45 -13 -59 -1 -21 19 -25 19
-40 0z m229 -30 c18 -9 35 -23 38 -31 8 -21 -14 -113 -38 -160 -23 -47 -18
-68 15 -60 15 4 28 0 36 -9 10 -12 10 -15 -3 -15 -29 0 -36 -27 -38 -136 -1
-100 -3 -110 -20 -110 -13 0 -19 7 -19 23 0 38 -65 58 -90 28 -6 -7 -13 -22
-14 -31 -3 -21 -35 -28 -42 -10 -3 8 -6 56 -7 107 -2 81 -4 94 -19 93 -9 -1
-18 6 -21 16 -3 12 5 20 29 29 38 14 52 47 34 81 -12 23 -16 162 -5 180 20 32
107 35 164 5z"/>
<path d="M1180 1380 c0 -5 7 -7 15 -4 8 4 15 8 15 10 0 2 -7 4 -15 4 -8 0 -15
-4 -15 -10z"/>
<path d="M1334 1361 c4 -5 0 -11 -6 -14 -7 -2 -10 -8 -6 -12 4 -4 14 -1 22 8
15 14 12 27 -6 27 -5 0 -7 -4 -4 -9z"/>
<path d="M1195 1350 c3 -5 8 -10 11 -10 2 0 4 5 4 10 0 6 -5 10 -11 10 -5 0
-7 -4 -4 -10z"/>
<path d="M1204 1289 c-3 -6 5 -23 19 -37 25 -25 26 -25 61 -8 20 9 36 21 36
26 0 26 -101 42 -116 19z m61 -9 c-3 -6 1 -7 9 -4 9 3 16 1 16 -5 0 -10 -13
-13 -37 -10 -5 1 -7 5 -6 9 1 4 -7 6 -17 3 -11 -3 -20 0 -20 6 0 6 14 11 31
11 17 0 28 -4 24 -10z"/>
<path d="M1199 1206 c25 -30 121 -27 121 3 0 5 -13 3 -29 -5 -26 -13 -34 -13
-67 1 -30 12 -34 13 -25 1z"/>
<path d="M1186 1129 c-10 -52 -7 -75 15 -103 39 -50 109 -23 109 42 0 66 -8
81 -43 79 -18 -1 -42 2 -53 6 -18 6 -22 3 -28 -24z m82 -2 c12 -1 22 -8 23
-17 0 -8 2 -24 4 -34 6 -32 -13 -56 -44 -56 -43 0 -55 22 -52 93 1 23 4 27 24
22 12 -3 32 -7 45 -8z"/>
<path d="M2054 1426 c-21 -9 -35 -11 -42 -4 -5 5 -22 8 -38 6 -37 -4 -54 -50
-28 -79 9 -10 28 -19 41 -19 16 0 23 -6 23 -20 0 -11 16 -38 36 -60 l36 -40
-35 -39 c-19 -21 -41 -55 -48 -75 -7 -20 -19 -36 -27 -36 -9 0 -5 -7 9 -19
l24 -19 7 28 c5 15 15 33 23 40 13 11 15 5 15 -49 0 -66 16 -147 33 -169 13
-16 59 -12 65 6 3 8 -3 12 -14 10 -22 -4 -31 27 -14 47 16 19 64 19 79 1 14
-16 4 -46 -15 -46 -8 0 -14 -5 -14 -10 0 -17 24 -22 53 -11 20 8 27 19 32 54
8 55 19 72 39 64 11 -5 16 -19 16 -51 0 -75 44 -96 116 -54 29 17 40 19 55 10
42 -26 55 -3 14 24 -23 15 -27 15 -70 -6 -63 -31 -79 -25 -83 30 -2 24 -8 50
-14 57 -27 33 -88 0 -88 -46 l0 -23 -31 26 c-39 33 -63 33 -96 0 -14 -14 -27
-23 -30 -21 -2 3 -7 38 -10 78 -3 41 -11 84 -19 95 -11 19 -10 26 12 58 18 26
24 45 20 64 -3 15 -2 33 3 41 5 8 7 20 4 28 -6 16 -39 17 -50 1 -5 -9 -9 -3
-13 17 -4 23 0 34 16 48 24 18 79 23 89 7 10 -17 24 -11 22 9 -1 13 -5 17 -12
11 -6 -5 -17 -5 -24 0 -8 4 -21 6 -30 3 -9 -3 -4 4 12 14 45 32 10 45 -49 19z
m-49 -46 c0 -29 -32 -41 -41 -16 -9 24 4 48 23 44 12 -2 18 -12 18 -28z m59 9
c-3 -5 -10 -7 -15 -3 -5 3 -7 10 -3 15 3 5 10 7 15 3 5 -3 7 -10 3 -15z m19
-104 c1 -5 -6 -11 -15 -13 -11 -2 -18 3 -18 13 0 17 30 18 33 0z"/>
<path d="M755 1421 c-3 -5 -1 -12 5 -16 12 -7 30 2 30 16 0 12 -27 12 -35 0z"/>
<path d="M865 1419 c-4 -6 -19 -7 -35 -4 -17 4 -31 2 -35 -5 -11 -18 3 -24 22
-9 15 12 16 12 10 -5 -6 -15 -5 -17 6 -7 11 9 17 8 26 -3 21 -25 24 -69 6 -82
-10 -8 -12 -14 -6 -19 17 -10 13 -35 -6 -36 -17 0 -17 -1 -1 -11 15 -11 14
-15 -9 -45 -14 -18 -21 -33 -17 -33 5 0 10 -12 11 -26 2 -37 17 -47 76 -53 4
-1 7 -5 7 -11 0 -5 -8 -7 -17 -4 -15 5 -14 2 3 -13 11 -10 19 -24 16 -31 -2
-6 3 -12 12 -12 21 0 20 13 -4 61 -13 24 -25 37 -32 33 -7 -4 -8 -3 -4 4 4 6
-7 21 -24 33 l-30 23 20 21 c23 25 40 75 40 121 0 26 3 31 19 27 10 -3 30 6
47 20 l29 25 -29 13 c-24 11 -32 11 -58 -4 l-31 -18 6 31 c6 29 -5 41 -18 19z
m93 -51 c-3 -7 -20 -14 -38 -16 -30 -3 -32 -2 -21 12 16 19 65 22 59 4z m-83
-258 c3 -5 2 -10 -4 -10 -5 0 -13 5 -16 10 -3 6 -2 10 4 10 5 0 13 -4 16 -10z"/>
<path d="M770 1374 c0 -8 5 -12 10 -9 6 4 8 11 5 16 -9 14 -15 11 -15 -7z"/>
<path d="M225 1370 c-3 -5 -1 -10 5 -10 6 0 8 -4 5 -10 -3 -5 -2 -10 4 -10 5
0 9 9 8 20 -1 21 -12 26 -22 10z"/>
<path d="M707 1374 c-3 -4 0 -13 8 -20 18 -18 31 -18 16 -1 -6 8 -8 17 -4 20
3 4 2 7 -4 7 -5 0 -12 -3 -16 -6z"/>
<path d="M350 1350 c0 -5 5 -10 10 -10 6 0 10 5 10 10 0 6 -4 10 -10 10 -5 0
-10 -4 -10 -10z"/>
<path d="M790 1349 c0 -5 -4 -7 -10 -4 -5 3 -10 -1 -10 -9 0 -14 3 -14 20 -4
21 14 27 28 10 28 -5 0 -10 -5 -10 -11z"/>
<path d="M830 1350 c0 -5 5 -10 10 -10 6 0 10 5 10 10 0 6 -4 10 -10 10 -5 0
-10 -4 -10 -10z"/>
<path d="M2206 1352 c-6 -10 30 -9 40 1 4 4 -2 7 -14 7 -11 0 -23 -4 -26 -8z"/>
<path d="M2076 1340 c-11 -3 -15 -9 -10 -12 5 -3 18 -2 28 2 11 3 15 9 10 12
-5 3 -18 2 -28 -2z"/>
<path d="M773 1309 c-26 -10 -30 -27 -8 -35 18 -7 20 -31 3 -36 -7 -3 1 -5 19
-5 27 0 30 2 16 12 -14 11 -13 14 7 28 13 9 22 18 19 20 -2 1 -11 8 -19 14 -9
7 -23 7 -37 2z"/>
<path d="M2151 1311 c-10 -7 -10 -10 -1 -16 6 -4 16 -3 22 3 13 13 -4 23 -21
13z"/>
<path d="M1630 1288 c-19 -13 -44 -41 -55 -63 -39 -79 -28 -322 16 -345 23
-13 49 -13 49 0 0 6 -8 10 -19 10 -14 0 -20 10 -25 46 -11 85 -10 91 23 86 30
-4 91 22 91 39 0 6 9 8 20 4 14 -4 22 -1 26 10 7 18 -11 43 -23 31 -4 -4 -1
-11 7 -16 11 -7 8 -10 -13 -10 -16 0 -26 4 -22 10 3 6 1 10 -5 10 -7 0 -10 -7
-6 -15 4 -11 -2 -15 -23 -15 -41 0 -81 49 -81 100 0 57 18 92 44 84 17 -4 18
-3 6 5 -12 9 -10 11 13 11 15 0 35 -8 46 -19 18 -18 18 -18 30 0 6 11 22 19
35 19 25 0 43 -15 29 -23 -5 -2 -2 -2 4 -1 35 9 44 -86 13 -145 -19 -39 -36
-51 -70 -51 -27 0 -39 -21 -28 -50 9 -24 10 -24 21 -5 9 15 23 20 56 20 l43 0
-7 -60 c-4 -37 -12 -65 -22 -72 -25 -19 -5 -29 24 -13 26 15 27 17 31 145 5
152 -5 202 -52 252 -28 31 -40 37 -87 40 -45 4 -60 1 -89 -19z m100 -6 c0 -5
-7 -9 -15 -9 -8 0 -12 4 -9 9 3 4 9 8 15 8 5 0 9 -4 9 -8z m-121 -220 c-5 -2
-7 -8 -3 -13 3 -5 0 -9 -6 -9 -7 0 -14 9 -17 20 -3 11 -9 17 -14 14 -5 -3 -6
2 -3 10 5 14 9 13 29 -2 13 -9 19 -19 14 -20z m229 4 c-2 -18 -6 -22 -23 -17
-17 4 -18 6 -2 9 9 2 17 10 17 18 0 8 2 14 5 14 3 0 4 -11 3 -24z"/>
<path d="M2200 1265 c-15 -18 -51 -20 -68 -3 -8 8 -12 8 -12 1 0 -28 61 -30
85 -3 10 11 16 20 13 20 -3 0 -11 -7 -18 -15z"/>
<path d="M1623 1217 c4 -12 47 -18 47 -6 0 3 -11 9 -25 12 -15 2 -24 0 -22 -6z"/>
<path d="M1778 1223 c-10 -3 -18 -8 -18 -12 0 -9 37 -8 45 1 9 9 -7 15 -27 11z"/>
<path d="M1612 1181 c2 -7 7 -12 11 -12 12 1 9 15 -3 20 -7 2 -11 -2 -8 -8z"/>
<path d="M1690 1177 c0 -7 6 -22 14 -33 16 -21 29 -14 41 24 6 19 3 22 -24 22
-19 0 -31 -5 -31 -13z"/>
<path d="M1790 1181 c0 -6 5 -13 10 -16 6 -3 10 1 10 9 0 9 -4 16 -10 16 -5 0
-10 -4 -10 -9z"/>
<path d="M299 1148 c-1 -7 -1 -17 0 -22 1 -5 -3 -12 -8 -15 -6 -4 -2 -12 10
-19 17 -11 21 -10 28 10 4 12 6 30 3 40 -5 20 -31 25 -33 6z m24 -12 c4 -10 1
-13 -8 -9 -8 3 -12 9 -9 14 7 12 11 11 17 -5z m-3 -36 c0 -5 -2 -10 -4 -10 -3
0 -8 5 -11 10 -3 6 -1 10 4 10 6 0 11 -4 11 -10z"/>
<path d="M689 1093 c-5 -15 -9 -52 -7 -82 3 -48 6 -56 23 -56 11 0 20 7 20 15
0 9 -7 14 -19 12 -17 -3 -18 -1 -7 11 8 10 9 17 1 22 -5 3 -10 12 -10 18 0 7
4 6 10 -3 5 -8 12 -12 15 -8 4 3 -1 17 -10 31 -14 22 -14 25 0 30 8 4 15 13
15 22 0 25 -20 17 -31 -12z"/>
<path d="M294 1060 c0 -13 4 -16 10 -10 7 7 7 13 0 20 -6 6 -10 3 -10 -10z"/>
<path d="M850 1057 c0 -8 7 -18 16 -21 11 -4 14 -1 12 11 -4 21 -28 30 -28 10z"/>
<path d="M1964 1029 c-4 -7 -3 -9 4 -5 5 3 13 0 15 -6 4 -9 6 -10 6 -1 1 17
-16 25 -25 12z"/>
<path d="M847 1024 c-4 -4 -2 -13 4 -21 9 -10 8 -13 -5 -13 -10 0 -14 -4 -11
-10 3 -5 15 -10 26 -10 16 0 19 6 16 27 -4 27 -17 39 -30 27z"/>
<path d="M794 994 c-18 -14 -18 -15 4 -4 12 6 22 13 22 15 0 8 -5 6 -26 -11z"/>
<path d="M750 950 c0 -5 14 -10 30 -10 17 0 30 -4 30 -10 0 -5 5 -10 10 -10 7
0 7 6 0 20 -11 21 -70 29 -70 10z"/>
<path d="M835 951 c-3 -5 -1 -12 5 -16 5 -3 10 -11 10 -16 0 -6 -4 -8 -9 -4
-10 6 -31 -25 -31 -44 0 -6 11 -11 24 -11 19 0 24 6 30 38 3 20 6 43 6 50 0
14 -26 16 -35 3z m5 -61 c0 -5 -5 -10 -11 -10 -5 0 -7 5 -4 10 3 6 8 10 11 10
2 0 4 -4 4 -10z"/>
<path d="M694 920 c3 -14 6 -33 6 -43 0 -13 6 -17 23 -15 12 2 20 8 17 13 -2
6 -10 9 -17 7 -19 -4 -16 4 8 27 15 13 17 21 9 26 -7 4 -16 1 -21 -6 -8 -12
-11 -12 -20 1 -8 12 -10 10 -5 -10z"/>
<path d="M1660 890 c0 -5 25 -10 55 -10 30 0 55 5 55 10 0 6 -25 10 -55 10
-30 0 -55 -4 -55 -10z"/>
</g>
</svg>
