<?xml version="1.0" standalone="no"?>
<!DOCTYPE svg PUBLIC "-//W3C//DTD SVG 20010904//EN"
 "http://www.w3.org/TR/2001/REC-SVG-20010904/DTD/svg10.dtd">
<svg version="1.0" xmlns="http://www.w3.org/2000/svg"
 width="225.000000pt" height="225.000000pt" viewBox="0 0 225.000000 225.000000"
 preserveAspectRatio="xMidYMid meet">

<g transform="translate(0.000000,225.000000) scale(0.100000,-0.100000)"
fill="#000000" stroke="none">
<path d="M105 1871 c-27 -12 -61 -50 -74 -84 -7 -17 -11 -115 -11 -241 l0
-213 41 -6 c61 -8 112 -47 143 -108 30 -60 33 -113 10 -167 -28 -68 -110 -132
-169 -132 l-25 0 0 -207 c0 -115 5 -224 10 -244 5 -19 24 -48 41 -65 l30 -29
1024 0 1024 0 30 29 c17 17 36 46 41 65 5 20 10 129 10 242 l0 206 -41 6 c-88
12 -169 109 -169 202 0 93 81 190 169 202 l41 6 0 206 c0 113 -5 222 -10 242
-5 19 -24 48 -41 65 l-30 29 -1012 2 c-557 1 -1021 -2 -1032 -6z m535 -179 c0
-32 5 -63 12 -70 7 -7 35 -12 64 -12 60 0 64 5 64 86 l0 54 636 -2 636 -3 19
-24 c16 -20 19 -40 19 -150 l0 -128 -50 -32 c-205 -133 -205 -439 0 -572 l50
-32 0 -128 c0 -110 -3 -130 -19 -150 l-19 -24 -636 -3 -636 -2 0 54 c0 81 -4
86 -64 86 -29 0 -57 -5 -64 -12 -7 -7 -12 -38 -12 -71 l0 -58 -221 3 c-276 4
-259 -8 -259 177 l0 128 50 32 c205 133 205 439 0 572 l-50 32 0 124 c0 130 7
158 43 173 12 5 115 9 230 9 l207 1 0 -58z"/>
<path d="M650 1451 c-12 -23 -13 -220 -1 -239 11 -19 83 -27 110 -13 20 11 21
19 21 129 0 79 -4 122 -12 130 -7 7 -33 12 -60 12 -37 0 -50 -4 -58 -19z"/>
<path d="M670 1053 c-26 -10 -30 -26 -30 -131 0 -130 6 -142 68 -142 27 0 53
5 60 12 8 8 12 51 12 130 0 106 -2 118 -19 128 -21 11 -66 12 -91 3z"/>
</g>
</svg>
